<?xml version="1.0" standalone="no"?>
<!DOCTYPE svg PUBLIC "-//W3C//DTD SVG 20010904//EN"
 "http://www.w3.org/TR/2001/REC-SVG-20010904/DTD/svg10.dtd">
<svg version="1.0" xmlns="http://www.w3.org/2000/svg"
 width="513.000000pt" height="513.000000pt" viewBox="0 0 513.000000 513.000000"
 preserveAspectRatio="xMidYMid meet">
<metadata>
Created by potrace 1.14, written by Peter Selinger 2001-2017
</metadata>
<g transform="translate(0.000000,513.000000) scale(0.100000,-0.100000)"
fill="#000000" stroke="none">
<path d="M2508 5025 c-2 -1 -62 -5 -133 -7 -105 -4 -138 -9 -170 -26 -145 -74
-145 -274 0 -349 25 -14 72 -16 280 -16 167 1 260 5 280 13 93 36 142 156 102
251 -35 85 -98 119 -232 126 -49 2 -98 6 -107 7 -9 2 -18 3 -20 1z"/>
<path d="M1358 4747 c-145 -75 -282 -163 -319 -203 -69 -76 -63 -200 13 -271
58 -55 156 -67 221 -29 19 12 83 50 143 87 60 36 134 77 166 92 107 52 155
132 135 226 -19 93 -82 149 -175 156 -60 5 -65 4 -184 -58z"/>
<path d="M3395 4803 c-79 -22 -148 -121 -139 -198 7 -54 10 -62 28 -91 26 -41
50 -59 141 -106 44 -22 126 -69 181 -104 117 -73 142 -84 192 -84 157 1 248
198 147 319 -31 36 -176 130 -317 205 -107 57 -177 75 -233 59z"/>
<path d="M4763 4289 c-68 -12 -115 -41 -237 -144 -116 -98 -117 -99 -166 -96
-109 6 -191 -72 -203 -191 -3 -26 -13 -45 -31 -59 -14 -11 -32 -26 -39 -32 -6
-7 -91 -79 -187 -162 -96 -82 -188 -161 -205 -176 -16 -15 -82 -71 -145 -125
-63 -54 -117 -101 -120 -104 -3 -3 -68 -59 -145 -125 -77 -65 -142 -122 -145
-125 -3 -3 -34 -30 -70 -60 -36 -30 -67 -57 -70 -60 -3 -3 -36 -32 -75 -65
-38 -33 -72 -62 -75 -65 -14 -15 -333 -285 -339 -288 -4 -1 -18 7 -32 18 -34
30 -225 196 -274 239 -16 14 -65 57 -109 94 -43 37 -84 73 -91 80 -6 7 -36 32
-65 57 -29 25 -58 50 -64 55 -6 6 -43 37 -81 70 -39 33 -75 64 -81 70 -6 5
-39 35 -74 65 -35 30 -84 74 -109 97 -25 23 -75 57 -110 75 -162 83 -351 16
-433 -152 -17 -35 -22 -64 -22 -130 -1 -133 27 -178 204 -330 41 -36 77 -67
80 -70 3 -3 34 -30 70 -60 36 -30 67 -58 70 -61 3 -3 39 -35 80 -70 41 -35 80
-68 86 -74 6 -6 35 -31 64 -56 28 -24 62 -53 74 -64 12 -11 51 -45 86 -75 35
-30 68 -59 74 -65 6 -5 43 -37 81 -70 39 -33 72 -62 75 -65 3 -3 39 -35 80
-70 41 -35 77 -66 80 -69 5 -7 126 -112 225 -196 32 -27 63 -54 69 -60 44 -40
35 -42 116 28 14 12 106 92 205 177 99 85 185 159 191 165 6 5 32 28 58 50 58
48 81 68 121 103 17 15 93 81 170 147 195 167 197 168 215 185 15 14 108 94
170 146 14 12 79 68 145 125 66 57 149 129 185 159 36 30 70 60 75 66 6 5 39
35 75 65 36 29 67 56 70 59 3 3 52 46 110 95 58 50 107 92 110 95 30 31 76 60
96 60 32 0 93 31 122 63 13 13 31 45 40 69 11 30 35 60 68 89 28 24 79 69 115
99 126 108 159 143 185 196 24 50 26 61 22 151 -6 113 -19 145 -88 214 -70 70
-180 105 -277 88z"/>
<path d="M550 4037 c-60 -28 -89 -64 -187 -227 -77 -129 -123 -226 -129 -274
-16 -110 69 -210 183 -215 100 -4 146 32 219 174 45 89 69 129 126 212 74 109
76 205 5 281 -52 56 -153 78 -217 49z"/>
<path d="M185 2940 c-99 -23 -148 -83 -160 -200 -7 -69 -7 -302 0 -383 14
-173 191 -257 320 -154 66 52 68 63 68 347 0 188 -3 262 -13 280 -41 81 -135
129 -215 110z"/>
<path d="M4681 2929 c-46 -20 -88 -61 -103 -99 -6 -14 -11 -134 -12 -275 -2
-285 2 -302 81 -361 37 -28 50 -32 105 -32 89 1 139 31 180 109 21 41 23 57
24 239 2 237 -5 298 -42 352 -51 73 -154 103 -233 67z"/>
<path d="M389 1780 c-87 -16 -159 -104 -159 -194 0 -82 213 -453 288 -503 128
-85 301 10 302 165 0 48 -12 75 -79 177 -26 39 -66 108 -90 155 -67 131 -80
148 -124 174 -49 28 -89 35 -138 26z"/>
<path d="M4498 1778 c-57 -15 -103 -64 -156 -169 -27 -52 -77 -140 -111 -194
-86 -135 -93 -190 -36 -283 29 -49 111 -86 175 -80 74 7 119 43 190 150 75
115 175 310 184 360 24 133 -110 250 -246 216z"/>
<path d="M1110 867 c-85 -45 -120 -98 -120 -183 0 -91 49 -146 220 -248 267
-159 356 -176 448 -88 21 20 44 51 51 69 26 65 2 174 -47 214 -11 10 -62 39
-113 65 -52 26 -131 72 -176 101 -45 29 -96 59 -112 68 -37 18 -117 20 -151 2z"/>
<path d="M3705 859 c-22 -12 -65 -38 -95 -59 -30 -20 -104 -63 -165 -95 -60
-32 -118 -65 -129 -74 -32 -28 -59 -93 -58 -141 0 -55 12 -87 47 -128 39 -46
81 -65 145 -65 46 0 70 7 145 45 128 64 241 133 319 192 91 70 99 204 18 289
-56 59 -154 75 -227 36z"/>
<path d="M2222 465 c-154 -52 -169 -275 -23 -352 43 -22 52 -23 289 -23 265 0
282 3 338 58 91 91 67 248 -49 309 -27 14 -67 17 -278 18 -148 0 -259 -3 -277
-10z"/>
</g>
</svg>
