<?xml version="1.0" standalone="no"?>
<!DOCTYPE svg PUBLIC "-//W3C//DTD SVG 20010904//EN"
 "http://www.w3.org/TR/2001/REC-SVG-20010904/DTD/svg10.dtd">
<svg version="1.0" xmlns="http://www.w3.org/2000/svg"
 width="1280.000000pt" height="1280.000000pt" viewBox="0 0 1280.000000 1280.000000"
 preserveAspectRatio="xMidYMid meet">
<metadata>
Created by potrace 1.14, written by Peter Selinger 2001-2017
</metadata>
<g transform="translate(0.000000,1280.000000) scale(0.100000,-0.100000)"
fill="#000000" stroke="none">
<path d="M6095 12793 c-1465 -75 -2812 -621 -3919 -1586 -150 -132 -464 -445
-592 -592 -822 -945 -1344 -2081 -1518 -3305 -49 -338 -60 -508 -60 -905 0
-398 12 -583 60 -915 247 -1730 1197 -3288 2622 -4303 936 -666 1990 -1054
3162 -1164 258 -24 853 -24 1105 0 833 81 1558 283 2275 637 1739 859 2994
2455 3416 4342 445 1993 -84 4070 -1430 5613 -130 149 -443 462 -592 592
-1098 956 -2418 1497 -3867 1582 -161 10 -510 12 -662 4z m1740 -3541 c103
-30 250 -100 329 -156 83 -59 201 -187 252 -272 23 -38 41 -70 40 -70 0 -1
-41 8 -91 19 -90 21 -95 22 -1965 22 -1870 0 -1875 -1 -1965 -22 -49 -11 -91
-20 -92 -19 -1 1 20 37 48 81 60 93 160 200 244 260 116 83 288 154 422 174
32 5 652 8 1378 7 l1320 -1 80 -23z m480 -960 c103 -30 250 -100 329 -156 83
-59 201 -187 252 -272 23 -38 41 -70 40 -70 0 -1 -41 8 -91 20 l-90 21 -2355
0 -2355 0 -90 -21 c-49 -12 -91 -21 -92 -20 -1 1 20 37 48 81 60 93 160 200
244 260 116 83 289 154 422 174 32 5 868 8 1858 7 l1800 -1 80 -23z m478 -959
c101 -29 221 -81 294 -129 90 -59 240 -216 297 -312 59 -100 111 -249 126
-363 8 -58 10 -411 8 -1144 l-3 -1060 -23 -80 c-55 -187 -141 -333 -269 -456
-131 -124 -256 -194 -434 -242 l-84 -22 -2305 0 -2305 0 -84 22 c-178 48 -303
118 -434 242 -133 127 -231 299 -274 481 -17 69 -18 156 -18 1175 l0 1100 22
84 c51 190 120 310 263 452 108 108 204 170 338 219 171 62 26 59 2522 57
l2285 -2 78 -22z"/>
<path d="M7323 6380 c-22 -9 -30 -20 -131 -167 -59 -88 -577 -865 -775 -1163
-71 -107 -150 -226 -175 -263 l-46 -68 -356 356 c-341 341 -357 355 -393 355
-54 0 -87 -35 -87 -92 l0 -42 393 -394 c215 -216 404 -400 419 -408 33 -17 69
-10 96 19 15 17 797 1181 1129 1682 31 47 53 91 53 107 0 56 -73 101 -127 78z"/>
</g>
</svg>
