<?xml version="1.0" standalone="no"?>
<!DOCTYPE svg PUBLIC "-//W3C//DTD SVG 20010904//EN"
 "http://www.w3.org/TR/2001/REC-SVG-20010904/DTD/svg10.dtd">
<svg version="1.0" xmlns="http://www.w3.org/2000/svg"
 width="512.000000pt" height="512.000000pt" viewBox="0 0 512.000000 512.000000"
 preserveAspectRatio="xMidYMid meet">
<metadata>
Created by potrace 1.14, written by Peter Selinger 2001-2017
</metadata>
<g transform="translate(0.000000,512.000000) scale(0.100000,-0.100000)"
fill="#000000" stroke="none">
<path d="M1020 3610 l0 -172 63 7 c34 4 632 9 1330 10 l1267 3 -19 -32 c-11
-17 -30 -49 -43 -71 -13 -22 -31 -52 -41 -65 -183 -257 -276 -377 -400 -517
-52 -59 -355 -364 -417 -419 -63 -56 -219 -185 -256 -211 l-31 -22 -29 27
c-16 15 -63 57 -104 92 -41 36 -80 70 -86 75 -6 6 -31 26 -55 46 -24 20 -76
63 -115 95 -39 33 -85 70 -104 84 -18 14 -42 33 -54 44 -11 10 -54 43 -94 74
-81 61 -80 61 -152 2 -81 -67 -123 -101 -149 -121 -25 -20 -26 -21 -6 -35 11
-8 29 -22 40 -32 11 -9 38 -30 60 -46 22 -17 42 -33 45 -36 3 -3 28 -24 55
-45 28 -22 52 -42 55 -45 3 -3 50 -43 105 -90 55 -46 102 -86 105 -90 3 -3 25
-23 50 -44 217 -189 439 -409 682 -676 101 -112 108 -120 192 -220 39 -47 74
-87 77 -90 3 -3 25 -31 48 -62 l43 -58 47 38 c25 20 48 39 51 42 3 3 44 36 93
73 48 38 87 72 87 76 0 4 -10 17 -22 28 -13 11 -30 30 -38 41 -47 62 -291 325
-483 520 -62 63 -107 116 -101 120 9 8 103 84 137 112 11 8 24 20 31 25 6 6
45 39 86 75 91 78 414 400 492 490 31 36 65 75 76 88 11 13 35 41 54 64 18 23
38 46 43 52 79 84 365 480 438 606 14 25 49 73 76 107 l50 62 -47 38 c-26 20
-79 63 -118 95 -55 44 -77 56 -95 52 -73 -16 -243 -18 -1389 -18 -1139 -1
-1376 3 -1492 21 l-38 6 0 -173z"/>
</g>
</svg>
